# Blender 3.4.1
# www.blender.org
mtllib arena.mtl
o Cylinder
v 0.000000 -1.000000 -20.000000
v 0.000000 1.000000 -20.000000
v 3.901806 -1.000000 -19.615705
v 3.901806 1.000000 -19.615705
v 7.653669 -1.000000 -18.477591
v 7.653669 1.000000 -18.477591
v 11.111404 -1.000000 -16.629393
v 11.111404 1.000000 -16.629393
v 14.142136 -1.000000 -14.142136
v 14.142136 1.000000 -14.142136
v 16.629393 -1.000000 -11.111404
v 16.629393 1.000000 -11.111404
v 18.477591 -1.000000 -7.653669
v 18.477591 1.000000 -7.653669
v 19.615705 -1.000000 -3.901806
v 19.615705 1.000000 -3.901806
v 20.000000 -1.000000 0.000000
v 20.000000 1.000000 0.000000
v 19.615705 -1.000000 3.901806
v 19.615705 1.000000 3.901806
v 18.477591 -1.000000 7.653669
v 18.477591 1.000000 7.653669
v 16.629393 -1.000000 11.111404
v 16.629393 1.000000 11.111404
v 14.142136 -1.000000 14.142136
v 14.142136 1.000000 14.142136
v 11.111404 -1.000000 16.629393
v 11.111404 1.000000 16.629393
v 7.653669 -1.000000 18.477591
v 7.653669 1.000000 18.477591
v 3.901806 -1.000000 19.615705
v 3.901806 1.000000 19.615705
v 0.000000 -1.000000 20.000000
v 0.000000 1.000000 20.000000
v -3.901806 -1.000000 19.615705
v -3.901806 1.000000 19.615705
v -7.653669 -1.000000 18.477591
v -7.653669 1.000000 18.477591
v -11.111404 -1.000000 16.629393
v -11.111404 1.000000 16.629393
v -14.142136 -1.000000 14.142136
v -14.142136 1.000000 14.142136
v -16.629393 -1.000000 11.111404
v -16.629393 1.000000 11.111404
v -18.477591 -1.000000 7.653669
v -18.477591 1.000000 7.653669
v -19.615705 -1.000000 3.901806
v -19.615705 1.000000 3.901806
v -20.000000 -1.000000 0.000000
v -20.000000 1.000000 0.000000
v -19.615705 -1.000000 -3.901806
v -19.615705 1.000000 -3.901806
v -18.477591 -1.000000 -7.653669
v -18.477591 1.000000 -7.653669
v -16.629393 -1.000000 -11.111404
v -16.629393 1.000000 -11.111404
v -14.142136 -1.000000 -14.142136
v -14.142136 1.000000 -14.142136
v -11.111404 -1.000000 -16.629393
v -11.111404 1.000000 -16.629393
v -7.653669 -1.000000 -18.477591
v -7.653669 1.000000 -18.477591
v -3.901806 -1.000000 -19.615705
v -3.901806 1.000000 -19.615705
vn 0.0980 -0.0000 -0.9952
vn 0.2903 -0.0000 -0.9569
vn 0.4714 -0.0000 -0.8819
vn 0.6344 -0.0000 -0.7730
vn 0.7730 -0.0000 -0.6344
vn 0.8819 -0.0000 -0.4714
vn 0.9569 -0.0000 -0.2903
vn 0.9952 -0.0000 -0.0980
vn 0.9952 -0.0000 0.0980
vn 0.9569 -0.0000 0.2903
vn 0.8819 -0.0000 0.4714
vn 0.7730 -0.0000 0.6344
vn 0.6344 -0.0000 0.7730
vn 0.4714 -0.0000 0.8819
vn 0.2903 -0.0000 0.9569
vn 0.0980 -0.0000 0.9952
vn -0.0980 -0.0000 0.9952
vn -0.2903 -0.0000 0.9569
vn -0.4714 -0.0000 0.8819
vn -0.6344 -0.0000 0.7730
vn -0.7730 -0.0000 0.6344
vn -0.8819 -0.0000 0.4714
vn -0.9569 -0.0000 0.2903
vn -0.9952 -0.0000 0.0980
vn -0.9952 -0.0000 -0.0980
vn -0.9569 -0.0000 -0.2903
vn -0.8819 -0.0000 -0.4714
vn -0.7730 -0.0000 -0.6344
vn -0.6344 -0.0000 -0.7730
vn -0.4714 -0.0000 -0.8819
vn -0.0000 1.0000 -0.0000
vn -0.2903 -0.0000 -0.9569
vn -0.0980 -0.0000 -0.9952
vn -0.0000 -1.0000 -0.0000
vt 24.480728 0.500000
vt -23.480728 0.500000
vt 0.500000 0.000000
vt 24.480728 1.000000
vt 0.500000 1.000000
vt -23.480728 1.000000
vt 22.981934 0.500000
vt 0.597545 0.009607
vt 22.981934 1.000000
vt 0.597545 0.990393
vt 21.483137 0.500000
vt 0.691342 0.038060
vt 21.483137 1.000000
vt 0.691342 0.961940
vt 19.984341 0.500000
vt 0.777785 0.084265
vt 19.984341 1.000000
vt 0.777785 0.915735
vt 18.485546 0.500000
vt 0.853553 0.146447
vt 18.485546 1.000000
vt 0.853553 0.853553
vt 16.986752 0.500000
vt 0.915735 0.222215
vt 16.986752 1.000000
vt 0.915735 0.777785
vt 15.487955 0.500000
vt 0.961940 0.308658
vt 15.487955 1.000000
vt 0.961940 0.691342
vt 13.989160 0.500000
vt 0.990393 0.402455
vt 13.989160 1.000000
vt 0.990393 0.597545
vt 12.490364 0.500000
vt 12.935362 0.500000
vt 1.000000 0.500000
vt 12.490364 1.000000
vt 12.935362 1.000000
vt 1.000000 0.500000
vt 11.380941 0.500000
vt 0.990393 0.597545
vt 11.380941 1.000000
vt 0.990393 0.402455
vt 9.826521 0.500000
vt 0.961940 0.691342
vt 9.826521 1.000000
vt 0.961940 0.308658
vt 8.272101 0.500000
vt 0.915735 0.777785
vt 8.272101 1.000000
vt 0.915735 0.222215
vt 6.717681 0.500000
vt 0.853553 0.853553
vt 6.717681 1.000000
vt 0.853553 0.146447
vt 5.163260 0.500000
vt 0.777785 0.915735
vt 5.163260 1.000000
vt 0.777785 0.084265
vt 3.608840 0.500000
vt 0.691342 0.961940
vt 3.608840 1.000000
vt 0.691342 0.038060
vt 2.054420 0.500000
vt 0.597545 0.990393
vt 2.054420 1.000000
vt 0.597545 0.009607
vt 0.500000 0.500000
vt 0.500000 1.000000
vt 0.500000 1.000000
vt 0.500000 0.000000
vt -1.054420 0.500000
vt 0.402455 0.990393
vt -1.054420 1.000000
vt 0.402455 0.009607
vt -2.608840 0.500000
vt 0.308658 0.961940
vt -2.608840 1.000000
vt 0.308658 0.038060
vt -4.163260 0.500000
vt 0.222215 0.915735
vt -4.163260 1.000000
vt 0.222215 0.084265
vt -5.717681 0.500000
vt 0.146447 0.853553
vt -5.717681 1.000000
vt 0.146447 0.146447
vt -7.272101 0.500000
vt 0.084265 0.777785
vt -7.272101 1.000000
vt 0.084265 0.222215
vt -8.826521 0.500000
vt 0.038060 0.691342
vt -8.826521 1.000000
vt 0.038060 0.308658
vt -10.380941 0.500000
vt 0.009607 0.597545
vt -10.380941 1.000000
vt 0.009607 0.402455
vt -11.935362 0.500000
vt -11.490364 0.500000
vt 0.000000 0.500000
vt -11.935362 1.000000
vt -11.490364 1.000000
vt 0.000000 0.500000
vt -12.989160 0.500000
vt 0.009607 0.402455
vt -12.989160 1.000000
vt 0.009607 0.597545
vt -14.487955 0.500000
vt 0.038060 0.308658
vt -14.487955 1.000000
vt 0.038060 0.691342
vt -15.986752 0.500000
vt 0.084265 0.222215
vt -15.986752 1.000000
vt 0.084265 0.777785
vt -17.485546 0.500000
vt 0.146447 0.146447
vt -17.485546 1.000000
vt 0.146447 0.853553
vt -18.984341 0.500000
vt 0.222215 0.084265
vt -18.984341 1.000000
vt 0.222215 0.915735
vt -20.483137 0.500000
vt 0.308658 0.038060
vt 0.308658 0.961940
vt -20.483137 1.000000
vt -21.981934 0.500000
vt 0.402455 0.009607
vt 0.402455 0.990393
vt -21.981934 1.000000
s 0
usemtl Material
f 1/1/1 2/4/1 4/9/1 3/7/1
f 3/7/2 4/9/2 6/13/2 5/11/2
f 5/11/3 6/13/3 8/17/3 7/15/3
f 7/15/4 8/17/4 10/21/4 9/19/4
f 9/19/5 10/21/5 12/25/5 11/23/5
f 11/23/6 12/25/6 14/29/6 13/27/6
f 13/27/7 14/29/7 16/33/7 15/31/7
f 15/31/8 16/33/8 18/38/8 17/35/8
f 17/36/9 18/39/9 20/43/9 19/41/9
f 19/41/10 20/43/10 22/47/10 21/45/10
f 21/45/11 22/47/11 24/51/11 23/49/11
f 23/49/12 24/51/12 26/55/12 25/53/12
f 25/53/13 26/55/13 28/59/13 27/57/13
f 27/57/14 28/59/14 30/63/14 29/61/14
f 29/61/15 30/63/15 32/67/15 31/65/15
f 31/65/16 32/67/16 34/71/16 33/69/16
f 33/69/17 34/71/17 36/75/17 35/73/17
f 35/73/18 36/75/18 38/79/18 37/77/18
f 37/77/19 38/79/19 40/83/19 39/81/19
f 39/81/20 40/83/20 42/87/20 41/85/20
f 41/85/21 42/87/21 44/91/21 43/89/21
f 43/89/22 44/91/22 46/95/22 45/93/22
f 45/93/23 46/95/23 48/99/23 47/97/23
f 47/97/24 48/99/24 50/104/24 49/101/24
f 49/102/25 50/105/25 52/109/25 51/107/25
f 51/107/26 52/109/26 54/113/26 53/111/26
f 53/111/27 54/113/27 56/117/27 55/115/27
f 55/115/28 56/117/28 58/121/28 57/119/28
f 57/119/29 58/121/29 60/125/29 59/123/29
f 59/123/30 60/125/30 62/130/30 61/127/30
f 4/10/31 2/5/31 64/133/31 62/129/31 60/126/31 58/122/31 56/118/31 54/114/31 52/110/31 50/106/31 48/100/31 46/96/31 44/92/31 42/88/31 40/84/31 38/80/31 36/76/31 34/72/31 32/68/31 30/64/31 28/60/31 26/56/31 24/52/31 22/48/31 20/44/31 18/40/31 16/34/31 14/30/31 12/26/31 10/22/31 8/18/31 6/14/31
f 61/127/32 62/130/32 64/134/32 63/131/32
f 63/131/33 64/134/33 2/6/33 1/2/33
f 1/3/34 3/8/34 5/12/34 7/16/34 9/20/34 11/24/34 13/28/34 15/32/34 17/37/34 19/42/34 21/46/34 23/50/34 25/54/34 27/58/34 29/62/34 31/66/34 33/70/34 35/74/34 37/78/34 39/82/34 41/86/34 43/90/34 45/94/34 47/98/34 49/103/34 51/108/34 53/112/34 55/116/34 57/120/34 59/124/34 61/128/34 63/132/34
