# Blender 3.4.1
# www.blender.org
mtllib Crossbow12.mtl
o Sphere
v 1.693213 0.132245 -0.000000
v 1.693213 -0.132245 -0.000000
v 1.341668 0.005980 -0.000000
v 1.341668 -0.005980 -0.000000
v 0.428384 -0.099877 2.220000
v 0.532976 -0.004960 -2.155140
v 0.500460 -0.074131 2.219995
v 0.500215 -0.074131 -2.155138
v 0.533221 -0.004960 2.219994
v 0.428138 -0.099877 -2.155133
v 0.507475 0.067116 2.219995
v 0.358968 -0.067116 -2.155129
v 0.438304 0.099877 2.219999
v 0.333222 0.004960 -2.155128
v 0.366228 0.074131 2.220004
v 0.365983 0.074131 -2.155130
v 0.333467 0.004960 2.220006
v 0.438059 0.099877 -2.155134
v 0.359213 -0.067116 2.220004
v 0.507230 0.067116 -2.155138
v 1.291837 -0.227590 -0.232577
v 1.223028 -0.111838 -0.251672
v 1.291837 0.003914 -0.232577
v 0.945911 -0.227590 -0.000821
v 0.848600 -0.111838 -0.000821
v 0.945911 0.003914 -0.000821
v 1.291837 -0.227590 0.230934
v 1.223028 -0.111838 0.250029
v 1.291837 0.003914 0.230934
v 2.126977 -0.227590 0.326930
v 2.126977 -0.111838 0.353934
v 2.126977 0.003914 0.326930
v 2.126977 -0.227590 -0.328573
v 2.126977 -0.111838 -0.355577
v 2.126977 0.003914 -0.328573
v 1.239330 -0.227590 -0.000821
v 1.239330 0.003914 -0.000821
v 1.400796 0.003650 -0.211029
v 1.400796 -0.227325 -0.211029
v 1.400796 -0.227325 0.209386
v 1.400796 0.003650 0.209386
v -0.069444 -0.074131 0.032429
v -0.036683 -0.004960 0.032427
v -0.062429 0.067116 0.032428
v -0.131599 0.099877 0.032433
v -0.203676 0.074131 0.032437
v -0.236437 0.004960 0.032439
v -0.210691 -0.067116 0.032437
v -0.141520 -0.099877 0.032433
vn -0.9146 -0.3267 -0.2382
vn -0.8797 0.4166 -0.2291
vn -0.3351 0.9381 -0.0873
vn 0.4254 0.8982 0.1108
vn 0.9146 0.3267 0.2382
vn -0.4254 -0.8982 -0.1108
vn 0.8797 -0.4167 0.2291
vn 0.3351 -0.9381 0.0873
vn 0.0001 -0.0000 1.0000
vn -0.0001 -0.0000 -1.0000
vn -0.1112 -0.2258 -0.9678
vn -0.1112 0.2258 -0.9678
vn -0.5041 -0.4238 -0.7525
vn -0.5041 0.4238 -0.7525
vn -0.5041 0.4238 0.7525
vn -0.5041 -0.4238 0.7525
vn -0.1112 -0.2258 0.9678
vn -0.1112 0.2258 0.9678
vn -0.0000 1.0000 -0.0000
vn -0.0000 -1.0000 -0.0000
vn -0.7930 -0.0000 0.6092
vn -0.7930 -0.0000 -0.6092
vn -1.0000 -0.0000 -0.0000
vn -0.1598 -0.0000 -0.9872
vn -0.1598 -0.0000 0.9872
vn 0.3351 -0.9381 -0.0873
vn 0.8797 -0.4167 -0.2292
vn -0.4254 -0.8982 0.1108
vn 0.9146 0.3267 -0.2383
vn 0.4254 0.8982 -0.1108
vn -0.3351 0.9381 0.0873
vn -0.8797 0.4167 0.2292
vn -0.9146 -0.3267 0.2383
vn 0.0009 1.0000 -0.0078
vn 0.0023 1.0000 -0.0005
vn 0.0009 1.0000 0.0078
vn 0.0023 1.0000 0.0005
vn 0.0009 -1.0000 0.0078
vn 0.0023 -1.0000 0.0005
vn 0.0009 -1.0000 -0.0078
vn 0.0023 -1.0000 -0.0005
vt 0.490701 -3.026026
vt 0.561116 0.533415
vt 0.658269 -3.016555
vt 0.615581 0.210260
vt 0.530336 0.531676
vt 0.637323 -3.017739
vt 0.636527 0.211446
vt 0.616377 -3.018923
vt 0.508344 1.451836
vt 0.489905 0.203159
vt 0.657473 0.212630
vt 0.508022 2.754879
vt 0.595431 -3.020107
vt 0.510851 0.204343
vt 0.529560 3.677499
vt 0.574485 -3.021291
vt 0.531797 0.205527
vt 0.560340 3.679240
vt 0.553539 -3.022474
vt 0.552743 0.206710
vt 0.582332 2.759080
vt 0.532593 -3.023658
vt 0.573689 0.207895
vt 0.582654 1.456036
vt 0.511648 -3.024842
vt 0.594635 0.209079
vt 0.912724 0.762922
vt 0.854146 0.762922
vt 0.795568 0.762922
vt 0.912724 0.821500
vt 0.854146 0.821500
vt 0.795568 0.821500
vt 0.912724 0.880078
vt 0.854146 0.880078
vt 0.795568 0.880078
vt 0.704344 0.432274
vt 0.912724 0.938656
vt 0.704344 0.432274
vt 0.854146 0.938656
vt 0.795568 0.938656
vt 0.704344 0.432274
vt 0.912724 0.704344
vt 0.704344 0.431711
vt 0.854146 0.704344
vt 0.795568 0.704344
vt 0.704344 0.431711
vt 0.912724 0.821500
vt 0.704344 0.431711
vt 0.795568 0.821500
vt 0.704344 0.431711
vt 0.795568 0.762922
vt 0.704344 0.431711
vt 0.704344 0.431711
vt 0.912724 0.762922
vt 0.912724 0.880078
vt 0.704344 0.432274
vt 0.795568 0.880078
vt 0.704344 0.432274
vt 0.636925 -1.403147
vt 0.615979 -1.404331
vt 0.595033 -1.405514
vt 0.574087 -1.406698
vt 0.553141 -1.407882
vt 0.532195 -1.409065
vt 0.511249 -1.410250
vt 0.657871 -1.401963
vt 0.490303 -1.411433
s 0
usemtl Material.002
f 14/17/1 48/65/1 47/64/1
f 46/63/2 14/17/2 47/64/2
f 45/62/3 16/20/3 46/63/3
f 44/61/4 18/23/4 45/62/4
f 43/60/5 20/26/5 44/61/5
f 12/14/6 49/67/6 48/65/6
f 8/7/7 43/60/7 42/59/7
f 10/11/8 42/59/8 49/66/8
f 11/12/9 15/18/9 19/24/9
f 18/23/10 6/4/10 10/11/10
f 34/44/11 21/27/11 22/28/11
f 34/44/12 23/29/12 35/45/12
f 22/28/13 24/30/13 25/31/13
f 22/28/14 26/32/14 23/29/14
f 26/32/15 28/34/15 29/35/15
f 24/30/16 28/34/16 25/31/16
f 27/33/17 31/39/17 28/34/17
f 29/35/18 31/39/18 32/40/18
f 23/29/19 26/32/19 37/49/19
f 24/30/20 36/47/20 27/33/20
f 36/47/21 41/57/21 37/49/21
f 36/48/22 38/52/22 39/53/22
f 33/42/23 35/45/23 34/44/23
f 38/52/24 33/43/24 39/53/24
f 32/41/25 40/56/25 30/36/25
f 32/41/23 30/36/23 31/38/23
f 5/3/26 42/59/26 7/6/26
f 7/6/27 43/60/27 9/8/27
f 19/25/28 49/67/28 5/1/28
f 43/60/29 11/13/29 9/8/29
f 44/61/30 13/16/30 11/13/30
f 45/62/31 15/19/31 13/16/31
f 46/63/32 17/22/32 15/19/32
f 17/22/33 48/65/33 19/25/33
f 14/17/1 12/14/1 48/65/1
f 46/63/2 16/20/2 14/17/2
f 45/62/3 18/23/3 16/20/3
f 44/61/4 20/26/4 18/23/4
f 43/60/5 6/4/5 20/26/5
f 12/14/6 10/10/6 49/67/6
f 8/7/7 6/4/7 43/60/7
f 10/11/8 8/7/8 42/59/8
f 19/24/9 5/2/9 7/5/9
f 7/5/9 9/9/9 11/12/9
f 11/12/9 13/15/9 15/18/9
f 15/18/9 17/21/9 19/24/9
f 19/24/9 7/5/9 11/12/9
f 10/11/10 12/14/10 14/17/10
f 14/17/10 16/20/10 18/23/10
f 18/23/10 20/26/10 6/4/10
f 6/4/10 8/7/10 10/11/10
f 10/11/10 14/17/10 18/23/10
f 34/44/11 33/42/11 21/27/11
f 34/44/12 22/28/12 23/29/12
f 22/28/13 21/27/13 24/30/13
f 22/28/14 25/31/14 26/32/14
f 26/32/15 25/31/15 28/34/15
f 24/30/16 27/33/16 28/34/16
f 27/33/17 30/37/17 31/39/17
f 29/35/18 28/34/18 31/39/18
f 29/35/34 32/40/34 41/57/34
f 29/35/35 41/57/35 37/49/35
f 38/51/36 35/45/36 23/29/36
f 26/32/19 29/35/19 37/49/19
f 37/49/37 38/51/37 23/29/37
f 21/27/38 33/42/38 39/54/38
f 21/27/39 39/54/39 36/47/39
f 40/55/40 30/37/40 27/33/40
f 24/30/20 21/27/20 36/47/20
f 36/47/41 40/55/41 27/33/41
f 36/47/21 40/55/21 41/57/21
f 36/48/22 37/50/22 38/52/22
f 38/52/24 35/46/24 33/43/24
f 32/41/25 41/58/25 40/56/25
f 5/3/26 49/66/26 42/59/26
f 7/6/27 42/59/27 43/60/27
f 19/25/28 48/65/28 49/67/28
f 43/60/29 44/61/29 11/13/29
f 44/61/30 45/62/30 13/16/30
f 45/62/31 46/63/31 15/19/31
f 46/63/32 47/64/32 17/22/32
f 17/22/33 47/64/33 48/65/33
l 1 3
l 2 4
o Sphere.001
v 1.278759 0.132245 -1.647062
v 1.361199 -0.000000 -1.782767
v 1.278759 -0.132245 -1.647062
v 1.693213 0.132245 -0.000000
v 1.809800 -0.000000 -0.000000
v 1.693213 -0.132245 -0.000000
v 1.278759 0.132245 1.647061
v 1.361199 -0.000000 1.782766
v 1.278759 -0.132245 1.647061
v 0.278180 0.005980 2.329296
v 0.278180 -0.000000 2.521212
v 0.278180 -0.005980 2.329296
v 0.278180 0.005980 -2.329296
v 0.278180 -0.000000 -2.521212
v 0.278180 -0.005980 -2.329296
v 1.341668 0.005980 -0.000000
v 1.341668 -0.005980 -0.000000
v 1.148216 -0.005966 -1.493922
v 1.148216 0.005966 -1.493922
v 1.148216 0.005966 1.493922
v 1.148216 -0.005966 1.493922
v -2.457415 -0.456638 -0.058795
v -2.457415 -0.348897 -0.058795
v -2.457415 -0.456638 0.065736
v -2.457415 -0.348897 0.065736
v -0.836116 -0.055384 -0.058795
v -0.914889 -0.058450 -0.058795
v -0.836116 -0.055384 0.065736
v -0.914889 -0.058450 0.065736
v -1.651302 -0.349734 0.065736
v -1.651302 -0.241993 0.065736
v -1.651302 -0.349734 -0.058795
v -1.651302 -0.241993 -0.058795
v -1.026614 -0.241993 0.065736
v -1.026614 -0.349734 -0.058795
v -1.026614 -0.349734 0.065736
v -1.026614 -0.241993 -0.058795
v -2.258576 -0.349734 0.065736
v -2.258576 -0.241993 -0.058795
v -2.258576 -0.241993 0.065736
v -2.258576 -0.349734 -0.058795
v -1.449773 -0.349734 0.065736
v -1.449773 -0.241993 -0.058795
v -1.449773 -0.241993 0.065736
v -1.449773 -0.349734 -0.058795
v -2.355011 -0.368661 0.065736
v -2.355011 -0.260920 -0.058795
v -2.355011 -0.260920 0.065736
v -2.355011 -0.368661 -0.058795
v -1.862483 -0.241993 0.065736
v -1.862483 -0.349734 -0.058795
v -1.862483 -0.349734 0.065736
v -1.862483 -0.241993 -0.058795
v -0.940189 -0.189401 0.065736
v -0.910410 -0.249402 -0.058795
v -0.910410 -0.249402 0.065736
v -0.940189 -0.189401 -0.058795
v -0.919656 -0.055260 0.243629
v -0.919656 0.157534 0.243629
v -0.919656 -0.055260 -0.241503
v -0.919656 0.157534 -0.241503
v -0.833051 -0.055260 0.243629
v -0.833051 -0.055260 -0.241503
v -0.919656 0.135531 0.193996
v -0.919656 0.157534 0.183237
v -0.919656 0.157534 -0.181111
v -0.919656 0.019970 0.137487
v -0.919656 -0.027897 0.001063
v -0.919656 0.019970 -0.135362
v -0.919656 0.135531 -0.191871
v -0.910701 0.135531 0.193996
v -0.863669 0.019970 0.137487
v -0.844188 -0.027897 0.001063
v -0.863669 0.019970 -0.135362
v -0.910701 0.135531 -0.191871
v 2.118264 -0.223056 0.368347
v 2.118264 0.012365 0.368347
v 2.118264 -0.223056 -0.368347
v 2.118264 0.012365 -0.368347
v 2.145365 -0.223056 0.368347
v 2.145365 0.012365 0.368347
v 2.145365 -0.223056 -0.368347
v 2.145365 0.012365 -0.368347
vn 0.0212 0.9993 -0.0311
vn 0.2921 -0.7676 -0.5705
vn 0.7371 0.6498 -0.1855
vn 0.7371 -0.6498 -0.1855
vn 0.7371 -0.6498 0.1855
vn 0.7371 0.6498 0.1855
vn 0.0212 0.9993 0.0311
vn 0.2921 -0.7676 0.5705
vn -0.3368 -0.9377 0.0848
vn -0.3368 0.9377 -0.0848
vn 0.9917 -0.0000 0.1284
vn 0.9917 -0.0000 -0.1284
vn 1.0000 -0.0000 -0.0000
vn 0.6926 -0.0000 -0.7213
vn 0.6926 -0.0000 0.7213
vn -0.0000 -0.0000 -1.0000
vn 0.0389 -0.9992 -0.0000
vn -0.0000 -0.0000 1.0000
vn -0.9339 0.3576 -0.0000
vn 0.6517 -0.7585 -0.0000
vn -0.0000 -1.0000 -0.0000
vn -0.0000 1.0000 -0.0000
vn 0.5198 -0.8543 -0.0000
vn -0.1926 0.9813 -0.0000
vn -0.6517 0.7585 -0.0000
vn 0.1926 -0.9813 -0.0000
vn 0.9818 -0.1897 -0.0000
vn -0.6535 0.7569 -0.0000
vn -1.0000 -0.0000 -0.0000
vn 0.9262 0.3770 -0.0000
vn -0.0000 0.4393 0.8983
vn -0.0000 0.9436 0.3311
vn -0.0000 0.9436 -0.3311
vn -0.0000 0.4393 -0.8983
vn -0.0000 -0.4393 -0.8983
vn -0.0000 -0.4393 0.8983
vn 0.2921 0.7676 -0.5705
vn 0.0212 -0.9993 -0.0311
vn 0.2921 0.7676 0.5705
vn 0.0212 -0.9993 0.0311
vn -0.3686 -0.8466 -0.3839
vn -0.6409 -0.7631 -0.0830
vn -0.3686 -0.8466 0.3839
vn -0.3368 -0.9377 -0.0848
vn -0.6409 -0.7631 0.0830
vn -0.3686 0.8466 0.3839
vn -0.6409 0.7631 0.0830
vn -0.3686 0.8466 -0.3839
vn -0.3368 0.9377 0.0848
vn -0.6409 0.7631 -0.0830
vt 0.000079 0.749960
vt 0.250040 0.749960
vt 0.500000 0.749960
vt 0.000079 0.500000
vt 0.250040 0.500000
vt 0.500000 0.500000
vt 0.000079 0.250040
vt 0.250040 0.250040
vt 0.500000 0.250040
vt 0.500159 0.250358
vt 0.000079 0.000079
vt 0.500159 0.250358
vt 0.250040 0.000079
vt 0.500000 0.000079
vt 0.500159 0.250358
vt 0.000079 0.999921
vt 0.500159 0.250199
vt 0.250040 0.999921
vt 0.500000 0.999921
vt 0.500159 0.250199
vt 0.500159 0.250516
vt 0.000079 0.500000
vt 0.500159 0.250040
vt 0.530650 0.250040
vt 0.500000 0.500000
vt 0.500159 0.250516
vt 0.500000 0.749960
vt 0.500159 0.250516
vt 0.500159 0.250199
vt 0.500159 0.250199
vt 0.000079 0.749960
vt 0.500159 0.250516
vt 0.000079 0.250040
vt 0.500159 0.000079
vt 0.500159 0.250358
vt 0.500000 0.250040
vt 0.530650 0.000079
vt 0.500159 0.250358
vt 0.586625 0.468906
vt 0.586625 0.000281
vt 0.703781 0.117438
vt 0.469469 0.468906
vt 0.469469 0.000281
vt 0.352313 0.117438
vt 0.703781 0.234594
vt 0.586625 0.351750
vt 0.352313 0.234594
vt 0.469469 0.351750
vt 0.586625 0.117438
vt 0.469469 0.117438
vt 0.586625 0.234594
vt 0.469469 0.234594
vt 0.645203 0.234594
vt 0.586625 0.293172
vt 0.410891 0.234594
vt 0.469469 0.293172
vt 0.586625 0.058859
vt 0.645203 0.117438
vt 0.469469 0.058859
vt 0.410891 0.117438
vt 0.440180 0.234594
vt 0.469469 0.263883
vt 0.586625 0.088148
vt 0.615914 0.117438
vt 0.615914 0.234594
vt 0.586625 0.263883
vt 0.469469 0.088148
vt 0.440180 0.117438
vt 0.586625 0.323864
vt 0.675895 0.234594
vt 0.380199 0.117438
vt 0.469469 0.028168
vt 0.380199 0.234594
vt 0.469469 0.323864
vt 0.586625 0.028168
vt 0.675895 0.117438
vt 0.586625 0.278527
vt 0.630558 0.234594
vt 0.469469 0.073504
vt 0.425535 0.117438
vt 0.469469 0.278527
vt 0.425535 0.234594
vt 0.630558 0.117438
vt 0.586625 0.073504
vt 0.689838 0.234594
vt 0.586625 0.337807
vt 0.366256 0.117438
vt 0.469469 0.014224
vt 0.469469 0.337807
vt 0.366256 0.234594
vt 0.586625 0.014224
vt 0.689838 0.117438
vt 0.395545 0.234594
vt 0.469469 0.308518
vt 0.586625 0.043513
vt 0.660549 0.117438
vt 0.586625 0.308518
vt 0.660549 0.234594
vt 0.469469 0.043513
vt 0.395545 0.117438
vt 0.454188 0.234594
vt 0.469469 0.249875
vt 0.586625 0.102156
vt 0.601906 0.117438
vt 0.601906 0.234594
vt 0.586625 0.249875
vt 0.454188 0.117438
vt 0.469469 0.102156
vt 0.861525 0.367038
vt 0.809132 0.000281
vt 0.756738 0.419432
vt 0.861525 0.105069
vt 0.809132 0.262250
vt 0.704344 0.314644
vt 0.704344 0.052675
vt 0.756738 0.157463
vt 0.762213 0.403294
vt 0.883114 0.170102
vt 0.883114 0.158949
vt 0.750216 0.406387
vt 0.704344 0.419995
vt 0.710866 0.327689
vt 0.813016 0.362635
vt 0.883114 0.228680
vt 0.821854 0.321382
vt 0.883114 0.287258
vt 0.783549 0.303700
vt 0.883114 0.345836
vt 0.883114 0.404415
vt 0.704344 0.431148
vt 0.720539 0.319947
vt 0.748178 0.375224
vt 0.880619 0.170102
vt 0.725582 0.187766
vt 0.867516 0.228680
vt 0.730541 0.138756
vt 0.862088 0.287258
vt 0.735500 0.207602
vt 0.867516 0.345836
vt 0.706839 0.431148
vt 0.712904 0.304676
vt 0.880619 0.404415
vt 0.525107 0.688418
vt 0.525107 0.384731
vt 0.601029 0.460653
vt 0.449185 0.688418
vt 0.449185 0.384731
vt 0.373263 0.460653
vt 0.601029 0.536575
vt 0.525107 0.612496
vt 0.449185 0.612496
vt 0.373263 0.536575
vt 0.525107 0.460653
vt 0.449185 0.460653
vt 0.525107 0.536575
vt 0.449185 0.536575
s 0
usemtl Material
f 62/83/42 51/69/42 63/85/42
f 64/86/43 51/69/43 52/70/43
f 50/68/44 54/72/44 51/69/44
f 52/70/45 54/72/45 55/73/45
f 54/72/46 58/76/46 55/73/46
f 54/72/47 56/74/47 57/75/47
f 57/75/48 59/78/48 60/80/48
f 57/75/49 61/81/49 58/76/49
f 52/70/50 55/73/50 66/92/50
f 53/71/51 65/89/51 56/74/51
f 65/90/52 70/104/52 66/91/52
f 66/93/53 68/99/53 65/88/53
f 62/83/54 64/86/54 63/85/54
f 67/96/55 62/84/55 68/97/55
f 61/82/56 69/102/56 59/77/56
f 61/82/54 59/77/54 60/79/54
f 72/109/54 73/113/54 71/106/54
f 103/169/57 77/118/57 105/173/57
f 78/119/58 75/116/58 77/118/58
f 98/158/59 72/110/59 71/107/59
f 77/118/60 104/171/60 105/172/60
f 74/114/61 96/154/61 97/157/61
f 80/122/62 92/147/62 93/149/62
f 79/120/63 100/163/63 101/165/63
f 92/146/59 81/124/59 94/151/59
f 99/161/57 79/121/57 101/164/57
f 104/170/59 86/134/59 84/130/59
f 83/128/64 106/174/64 103/168/64
f 85/132/63 94/150/63 91/145/63
f 93/148/57 85/133/57 91/144/57
f 97/156/57 87/136/57 95/153/57
f 87/137/65 98/159/65 95/152/65
f 89/140/62 102/167/62 99/160/62
f 102/166/59 90/142/59 100/162/59
f 80/123/57 91/144/57 79/121/57
f 91/145/63 81/125/63 79/120/63
f 86/134/59 94/151/59 84/130/59
f 93/149/62 86/135/62 83/128/62
f 95/152/66 71/108/66 73/112/66
f 74/115/57 95/153/57 73/113/57
f 97/157/67 88/138/67 89/140/67
f 90/142/59 96/155/59 98/158/59
f 82/126/59 100/162/59 81/124/59
f 99/160/62 82/127/62 80/122/62
f 89/141/57 101/164/57 87/136/57
f 101/165/63 90/143/63 87/137/63
f 103/168/68 76/117/68 78/119/68
f 75/116/59 106/175/59 104/170/59
f 105/172/69 84/131/69 85/132/69
f 83/129/57 105/173/57 85/133/57
f 109/180/70 107/176/70 117/192/70
f 111/182/71 112/183/71 122/203/71
f 109/179/57 110/181/57 112/183/57
f 108/178/59 107/177/59 111/182/59
f 112/183/62 107/177/62 109/179/62
f 118/195/72 124/209/72 119/196/72
f 117/193/73 123/206/73 118/195/73
f 117/193/74 121/202/74 122/204/74
f 116/191/75 120/200/75 121/202/75
f 114/186/76 120/200/76 113/185/76
f 115/188/77 119/197/77 124/207/77
f 126/213/70 127/217/70 125/210/70
f 128/218/57 131/222/57 127/217/57
f 132/223/54 129/220/54 131/222/54
f 130/221/59 125/211/59 129/220/59
f 131/222/62 125/212/62 127/216/62
f 128/219/63 130/221/63 132/223/63
f 62/83/78 50/68/78 51/69/78
f 64/86/79 63/85/79 51/69/79
f 50/68/44 53/71/44 54/72/44
f 52/70/45 51/69/45 54/72/45
f 54/72/46 57/75/46 58/76/46
f 54/72/47 53/71/47 56/74/47
f 57/75/80 56/74/80 59/78/80
f 57/75/81 60/80/81 61/81/81
f 58/76/82 61/81/82 70/103/82
f 58/76/83 70/103/83 66/92/83
f 67/94/84 64/86/84 52/70/84
f 55/73/85 58/76/85 66/92/85
f 66/92/86 67/94/86 52/70/86
f 50/68/87 62/83/87 68/98/87
f 50/68/88 68/98/88 65/89/88
f 69/100/89 59/78/89 56/74/89
f 53/71/90 50/68/90 65/89/90
f 65/89/91 69/100/91 56/74/91
f 65/90/52 69/101/52 70/104/52
f 66/93/53 67/95/53 68/99/53
f 67/96/55 64/87/55 62/84/55
f 61/82/56 70/105/56 69/102/56
f 72/109/54 74/115/54 73/113/54
f 103/169/57 78/119/57 77/118/57
f 78/119/58 76/117/58 75/116/58
f 98/158/59 96/155/59 72/110/59
f 77/118/60 75/116/60 104/171/60
f 74/114/61 72/111/61 96/154/61
f 80/122/62 82/127/62 92/147/62
f 79/120/63 81/125/63 100/163/63
f 92/146/59 82/126/59 81/124/59
f 99/161/57 80/123/57 79/121/57
f 104/170/59 106/175/59 86/134/59
f 83/128/64 86/135/64 106/174/64
f 85/132/63 84/131/63 94/150/63
f 93/148/57 83/129/57 85/133/57
f 97/156/57 89/141/57 87/136/57
f 87/137/65 90/143/65 98/159/65
f 89/140/62 88/138/62 102/167/62
f 102/166/59 88/139/59 90/142/59
f 80/123/57 93/148/57 91/144/57
f 91/145/63 94/150/63 81/125/63
f 86/134/59 92/146/59 94/151/59
f 93/149/62 92/147/62 86/135/62
f 95/152/66 98/159/66 71/108/66
f 74/115/57 97/156/57 95/153/57
f 97/157/67 96/154/67 88/138/67
f 90/142/59 88/139/59 96/155/59
f 82/126/59 102/166/59 100/162/59
f 99/160/62 102/167/62 82/127/62
f 89/141/57 99/161/57 101/164/57
f 101/165/63 100/163/63 90/143/63
f 103/168/68 106/174/68 76/117/68
f 75/116/59 76/117/59 106/175/59
f 105/172/69 104/171/69 84/131/69
f 83/129/57 103/169/57 105/173/57
f 119/198/70 115/189/70 110/181/70
f 108/178/70 114/187/70 113/184/70
f 108/178/70 113/184/70 116/190/70
f 119/198/70 110/181/70 109/180/70
f 118/194/70 119/198/70 109/180/70
f 107/176/70 108/178/70 116/190/70
f 117/192/70 118/194/70 109/180/70
f 107/176/70 116/190/70 117/192/70
f 120/199/71 114/187/71 108/178/71
f 110/181/71 115/189/71 124/208/71
f 110/181/71 124/208/71 123/205/71
f 120/199/71 108/178/71 111/182/71
f 121/201/71 120/199/71 111/182/71
f 112/183/71 110/181/71 123/205/71
f 122/203/71 121/201/71 111/182/71
f 112/183/71 123/205/71 122/203/71
f 112/183/62 111/182/62 107/177/62
f 118/195/72 123/206/72 124/209/72
f 117/193/73 122/204/73 123/206/73
f 117/193/74 116/191/74 121/202/74
f 116/191/75 113/185/75 120/200/75
f 126/213/70 128/218/70 127/217/70
f 128/218/57 132/223/57 131/222/57
f 132/223/54 130/221/54 129/220/54
f 130/221/59 126/214/59 125/211/59
f 131/222/62 129/220/62 125/212/62
f 128/219/63 126/215/63 130/221/63
o Sphere.002
v -2.526069 -0.208898 0.252567
v -2.526069 -0.057854 0.252567
v -2.526069 -0.208898 -0.252567
v -2.526069 -0.057854 -0.252567
v 1.340605 -0.208898 0.252567
v 1.340605 -0.057854 0.252567
v -0.914889 -0.058450 -0.058795
v 1.340605 -0.208898 -0.252567
v 1.340605 -0.057854 -0.252567
v -0.914889 -0.058450 0.065736
v -0.940189 -0.189401 0.065736
v -0.940189 -0.189401 -0.058795
v -0.930513 -0.208898 -0.058795
v -0.972229 -0.208898 -0.058795
v -0.894900 -0.208898 -0.058795
v -0.972229 -0.208898 0.065736
v -0.894900 -0.208898 0.065736
v -0.930513 -0.208898 0.065736
v -0.837062 -0.057854 -0.058795
v -0.899562 -0.057854 -0.058795
v -0.899562 -0.057854 0.065736
v -0.837062 -0.057854 0.065736
vn -1.0000 -0.0000 -0.0000
vn -0.0000 -0.0000 -1.0000
vn 1.0000 -0.0000 -0.0000
vn -0.0000 -0.0000 1.0000
vn -0.0000 -1.0000 -0.0000
vn -0.0000 1.0000 -0.0000
vn 0.0389 -0.9992 -0.0000
vn -0.9339 0.3576 -0.0000
vn 0.5198 -0.8543 -0.0000
vn 0.9818 -0.1897 -0.0000
vt 0.505377 0.828186
vt 0.505377 0.055842
vt 0.698463 0.248928
vt 0.312291 0.828186
vt 0.312291 0.055842
vt 0.119206 0.248928
vt 0.505377 0.635100
vt 0.698463 0.442014
vt 0.312291 0.635100
vt 0.119206 0.442014
vt 0.505377 0.248928
vt 0.312291 0.248928
vt 0.979244 0.137912
vt 0.505377 0.442014
vt 0.312291 0.442014
vt 0.979244 0.020756
vt 0.979244 0.005474
vt 0.994526 0.020756
vt 0.994526 0.137912
vt 0.979244 0.153193
vt 0.618788 0.367945
vt 0.941175 0.153193
vt 0.979244 0.158386
vt 0.999719 0.137912
vt 0.620871 0.367945
vt 0.895573 0.158949
vt 0.617009 0.367945
vt 0.862088 0.150003
vt 0.979244 0.000281
vt 0.620871 0.320344
vt 0.999719 0.020756
vt 0.617009 0.320344
vt 0.862088 0.008665
vt 0.895573 0.276105
vt 0.618788 0.320344
vt 0.941175 0.005474
vt 0.203548 0.367945
vt 0.883677 0.158949
vt 0.862088 0.138106
vt 0.200427 0.367945
vt 0.956450 0.137912
vt 0.200427 0.320344
vt 0.956450 0.020756
vt 0.203548 0.320344
vt 0.862088 0.020561
vt 0.883677 0.276105
s 0
usemtl Material.001
f 134/227/92 135/230/92 133/224/92
f 136/232/93 140/237/93 135/230/93
f 141/238/94 137/234/94 140/237/94
f 138/235/95 133/225/95 137/234/95
f 140/237/96 137/234/96 149/255/96
f 133/226/96 146/248/96 148/253/96
f 134/229/97 152/263/97 136/233/97
f 138/235/97 141/238/97 154/267/97
f 142/239/93 154/268/93 150/259/93
f 139/236/98 153/266/98 142/239/98
f 149/257/99 151/261/99 147/249/99
f 145/245/95 144/243/95 146/246/95
f 144/242/100 148/254/100 146/247/100
f 142/239/101 144/242/101 139/236/101
f 152/264/95 144/243/95 147/251/95
f 150/259/93 148/252/93 143/240/93
f 134/227/92 136/232/92 135/230/92
f 136/232/93 141/238/93 140/237/93
f 141/238/94 138/235/94 137/234/94
f 138/235/95 134/228/95 133/225/95
f 145/244/96 146/248/96 135/231/96
f 137/234/96 133/226/96 148/253/96
f 148/253/97 150/258/97 149/255/97
f 145/244/96 135/231/96 140/237/96
f 147/250/96 145/244/96 140/237/96
f 137/234/96 148/253/96 149/255/96
f 149/255/96 147/250/96 140/237/96
f 133/226/96 135/231/96 146/248/96
f 134/229/97 153/265/97 152/263/97
f 154/267/97 153/265/97 134/229/97
f 141/238/97 136/233/97 152/263/97
f 141/238/97 152/263/97 151/260/97
f 154/267/97 134/229/97 138/235/97
f 141/238/97 151/260/97 154/267/97
f 150/259/93 143/240/93 142/239/93
f 142/239/93 153/266/93 154/268/93
f 154/268/93 149/256/93 150/259/93
f 139/236/98 152/264/98 153/266/98
f 149/257/99 154/269/99 151/261/99
f 144/242/100 143/241/100 148/254/100
f 142/239/101 143/241/101 144/242/101
f 147/251/95 151/262/95 152/264/95
f 152/264/95 139/236/95 144/243/95
f 144/243/95 145/245/95 147/251/95
