# Blender v2.92.0 OBJ File: ''
# www.blender.org
mtllib Shield.mtl
o Icosphere
v -0.414582 -0.804996 -0.090260
v 1.085411 -0.804995 0.039710
v -1.085411 0.804995 0.039710
v 0.414582 0.804996 -0.090260
v -0.243683 -1.531178 0.050002
v -1.032284 -0.946325 0.050001
v 0.394303 -0.946328 -0.073605
v -0.881678 0.000000 -0.073607
v 0.881678 0.000000 -0.073607
v 0.000000 0.000000 -0.150000
v -0.394303 0.946328 -0.073605
v 1.032284 0.946325 0.050001
v 0.243683 1.531178 0.050002
v 0.000000 -1.800000 0.000000
v -1.341639 -0.804988 0.000000
v -0.414582 -0.804996 -0.340260
v 1.085411 -0.804995 -0.210290
v -1.085411 0.804995 -0.210290
v 0.414582 0.804996 -0.340260
v 1.341639 0.804988 0.000000
v 0.000000 1.800000 0.000000
v 0.637984 -1.531178 0.123605
v 1.275972 -0.946325 0.000000
v 0.637984 -1.531178 -0.123605
v -0.788595 -1.531173 0.000000
v -0.243683 -1.531178 -0.199998
v -1.032284 -0.946325 -0.199999
v 0.394303 -0.946328 -0.323605
v 1.426587 0.000000 0.123605
v 1.426587 0.000000 -0.123605
v -1.426587 0.000000 0.123605
v -0.881678 0.000000 -0.323607
v -1.426587 0.000000 -0.123605
v 0.881678 0.000000 -0.323607
v 0.000000 0.000000 -0.400000
v -1.275972 0.946325 0.000000
v -0.394303 0.946328 -0.323605
v 1.032284 0.946325 -0.199999
v 0.788595 1.531173 0.000000
v -0.637984 1.531178 0.123605
v -0.637984 1.531178 -0.123605
v 0.243683 1.531178 -0.199998
v -0.152304 -1.631985 0.125000
v -0.152304 -1.631985 0.125000
v 0.621879 -1.531178 0.125000
v 1.162699 -0.862316 0.125000
v 1.162699 -0.862316 0.125000
v 0.645187 -1.519488 0.125000
v -1.421096 0.012954 0.125000
v -1.162699 0.862316 0.125000
v -0.448022 -1.531176 0.125000
v 1.419387 0.017280 0.125000
v 1.419387 0.017280 0.125000
v 1.422786 0.000000 0.125000
v 1.421096 -0.012954 0.125000
v 1.148291 0.893324 0.125000
v -1.148291 -0.893324 0.125000
v -1.148291 -0.893324 0.125000
v 1.148291 0.893324 0.125000
v -1.419387 -0.017280 0.125000
v 1.421096 -0.012954 0.125000
v -1.421096 0.012954 0.125000
v -1.422786 0.000000 0.125000
v -1.419387 -0.017280 0.125000
v -0.645187 1.519488 0.125000
v -0.636284 1.527097 0.125000
v -0.645186 1.519488 0.125000
v -0.940902 -1.165641 0.125000
v -1.162699 0.862316 0.125000
v -0.621879 1.531178 0.125000
v -0.940901 -1.165641 0.125000
v 0.152304 1.631985 0.125000
v 0.152304 1.631985 0.125000
v -0.448022 -1.531176 0.125000
v -0.636284 1.527097 0.125000
v -0.621879 1.531178 0.125000
v 0.636284 -1.527097 0.125000
v 0.621879 -1.531178 0.125000
v 0.636284 -1.527097 0.125000
v 0.448022 1.531176 0.125000
v 0.645186 -1.519488 0.125000
v 0.448022 1.531176 0.125000
v 0.940902 1.165641 0.125000
v 0.940901 1.165641 0.125000
v -0.970000 -0.280000 0.812158
v -0.970000 0.280000 0.812158
v -0.970000 -0.280000 -0.087842
v -0.970000 0.280000 -0.087842
v 0.970000 -0.280000 0.812158
v 0.970000 0.280000 0.812158
v 0.970000 -0.280000 -0.087842
v 0.970000 0.280000 -0.087842
v -0.690000 -0.280000 0.563640
v -0.690000 0.280000 0.563640
v -0.690000 -0.280000 -0.087842
v -0.690000 0.280000 -0.087842
v 0.690000 -0.280000 -0.087842
v 0.690000 0.280000 -0.087842
v 0.690000 -0.280000 0.563640
v 0.690000 0.280000 0.563640
vt 0.500000 0.000000
vt 0.776392 0.074674
vt 0.585408 0.074673
vt 0.276395 0.074673
vt 0.645306 0.276390
vt 0.861802 0.237132
vt 0.809017 0.500000
vt 0.119578 0.276390
vt 0.361802 0.237131
vt 0.190983 0.500000
vt 0.181818 0.157461
vt 0.136363 0.236191
vt 0.227273 0.236191
vt 0.500000 0.500000
vt 0.000000 0.500000
vt 0.880422 0.723610
vt 0.947211 0.762868
vt 0.723605 0.925327
vt 0.354694 0.723610
vt 0.638198 0.762869
vt 0.414592 0.925327
vt 0.029773 0.723608
vt 0.138198 0.762868
vt 0.223608 0.925326
vt 0.500000 1.000000
vt 0.227273 0.393651
vt 0.136363 0.393651
vt 0.181818 0.472382
vt 0.181818 0.314921
vt 1.000000 0.500000
vt 0.970227 0.276392
vt 0.681818 0.236191
vt 0.590909 0.236191
vt 0.636363 0.314921
vt 0.636363 0.157461
vt 0.052789 0.237132
vt 0.681818 0.078731
vt 0.590909 0.078731
vt 0.636363 0.000000
vt 0.414592 0.074673
vt 0.342974 0.074673
vt 0.446620 0.046671
vt 0.717960 0.074673
vt 0.190983 0.500000
vt 0.138198 0.237132
vt 0.354694 0.276390
vt 0.809017 0.500000
vt 0.638198 0.237131
vt 0.880422 0.276390
vt 0.500000 0.500000
vt 0.998076 0.496402
vt 0.998668 0.500000
vt 0.119578 0.723610
vt 0.273871 0.922080
vt 0.092489 0.739532
vt 0.585408 0.925327
vt 0.361802 0.762869
vt 0.645306 0.723610
vt 0.902461 0.748146
vt 0.902461 0.748146
vt 0.829774 0.823789
vt 0.657026 0.925327
vt 0.553380 0.953329
vt 0.861802 0.762868
vt 0.282040 0.925327
vt 0.553380 0.953329
vt 0.282040 0.925327
vt 0.273871 0.922080
vt 0.276991 0.924194
vt 0.997476 0.504800
vt 0.997477 0.504800
vt 0.092489 0.739532
vt 0.001924 0.503599
vt 0.001924 0.503598
vt 0.001332 0.500000
vt 0.002523 0.495200
vt 0.002524 0.495200
vt 0.097539 0.251854
vt 0.998076 0.496402
vt 0.726129 0.077920
vt 0.723009 0.075806
vt 0.717960 0.074673
vt 0.342974 0.074673
vt 0.170226 0.176211
vt 0.097539 0.251854
vt 0.170226 0.176211
vt 0.726129 0.077920
vt 0.947211 0.237132
vt 0.907511 0.260468
vt 0.907511 0.260468
vt 0.223608 0.074674
vt 0.000000 0.500000
vt 0.029773 0.276392
vt 0.682549 0.234924
vt 0.682549 0.234924
vt 0.276395 0.925327
vt 0.276991 0.924194
vt 0.052789 0.762868
vt 0.657026 0.925327
vt 0.776392 0.925326
vt 0.829774 0.823789
vt 0.970227 0.723608
vt 0.682648 0.237629
vt 0.682648 0.237629
vt 0.135632 0.237458
vt 0.135729 0.236191
vt 0.135533 0.234753
vt 0.774387 0.078731
vt 0.772726 0.078731
vt 0.773044 0.079280
vt 0.771995 0.079998
vt 0.334197 0.662728
vt 0.665803 0.329460
vt 0.666634 0.661897
vt 0.667767 0.330799
vt 0.332233 0.666333
vt 0.332233 0.330799
vt 0.667767 0.666333
vt 0.332233 1.001868
vt 0.427695 0.662494
vt 0.572492 0.404301
vt 0.427050 0.404665
vt 0.426602 0.666333
vt 0.573398 0.406102
vt 0.426602 0.406102
vt 0.554688 0.750000
vt 0.445312 1.000000
vt 0.554688 1.000000
vt 0.625000 0.250000
vt 0.375000 0.286082
vt 0.375000 0.250000
vt 0.625000 0.500000
vt 0.375000 0.463918
vt 0.625000 0.463918
vt -0.003302 0.666333
vt 0.283805 0.573682
vt 1.003302 0.666333
vt 0.954874 0.573682
vt 0.446620 0.046671
vt 0.723009 0.075806
vt 0.723605 0.074673
vt 1.000000 0.500000
vt 0.682452 0.236191
vt 0.135632 0.237458
vt 0.135533 0.234753
vt 0.774387 0.078731
vt 0.773044 0.079280
vt 0.771995 0.079998
vt 0.333366 0.330290
vt 0.667767 1.001868
vt 0.573136 0.662131
vt 0.573398 0.666333
vt 0.445312 0.750000
vt 0.625000 0.286082
vt 0.375000 0.500000
vt 0.283805 0.330799
vt -0.003302 0.330799
vt 0.045126 0.573682
vt 0.045126 0.330799
vt 0.954874 0.330799
vt 1.003302 0.330799
vt 0.716195 0.573682
vt 0.716195 0.330799
vn -0.2423 -0.7109 -0.6602
vn 0.0719 -0.5526 -0.8304
vn -0.1996 -0.0956 -0.9752
vn 0.1795 -0.0924 -0.9794
vn -0.9945 -0.1049 0.0000
vn -0.0863 -0.0295 -0.9958
vn 0.3442 -0.0449 -0.9378
vn -0.5212 0.4105 -0.7482
vn 0.0135 0.1927 -0.9812
vn 0.6205 0.4726 -0.6258
vn 0.2423 0.7109 -0.6602
vn 0.3125 0.4213 -0.8514
vn 0.1666 0.2247 -0.9601
vn -0.0719 0.5526 -0.8304
vn -0.0826 0.2915 -0.9530
vn -0.2046 0.2393 -0.9491
vn -0.3883 0.9215 0.0000
vn -0.6757 0.7371 0.0000
vn 0.5914 0.1830 -0.7854
vn 0.3438 0.0676 -0.9366
vn 0.1996 0.0956 -0.9752
vn -0.0070 0.0776 -0.9970
vn -0.0862 0.0444 -0.9953
vn -0.1795 0.0924 -0.9794
vn -0.6557 0.1995 -0.7282
vn -0.9876 0.1572 0.0000
vn 0.0863 0.0295 -0.9958
vn 0.0862 -0.0444 -0.9953
vn 0.0070 -0.0776 -0.9970
vn -0.3442 0.0449 -0.9378
vn -0.3438 -0.0676 -0.9366
vn -0.5914 -0.1830 -0.7854
vn 0.9945 0.1049 0.0000
vn 0.9876 -0.1572 0.0000
vn 0.6557 -0.1995 -0.7282
vn 0.2046 -0.2393 -0.9491
vn 0.0826 -0.2915 -0.9530
vn -0.0135 -0.1927 -0.9812
vn -0.1666 -0.2246 -0.9601
vn -0.3125 -0.4213 -0.8514
vn -0.6205 -0.4726 -0.6258
vn 0.5212 -0.4105 -0.7482
vn 0.6757 -0.7371 0.0000
vn 0.3883 -0.9215 0.0000
vn 0.2423 0.7109 0.6602
vn -0.0719 0.5526 0.8304
vn 0.1996 0.0956 0.9752
vn -0.1795 0.0924 0.9794
vn 0.0863 0.0295 0.9958
vn -0.3442 0.0449 0.9378
vn 0.5212 -0.4105 0.7482
vn -0.0135 -0.1927 0.9812
vn -0.9237 -0.3831 0.0000
vn -0.2423 -0.7109 0.6602
vn -0.3125 -0.4213 0.8514
vn -0.1666 -0.2247 0.9601
vn 0.0000 0.0000 1.0000
vn 0.0826 -0.2915 0.9530
vn 0.2046 -0.2393 0.9491
vn -0.5914 -0.1830 0.7854
vn -0.3438 -0.0676 0.9366
vn -0.1996 -0.0956 0.9752
vn 0.0070 -0.0776 0.9970
vn 0.0862 -0.0444 0.9953
vn 0.1795 -0.0924 0.9794
vn 0.6557 -0.1995 0.7282
vn -0.0863 -0.0295 0.9958
vn -0.0862 0.0444 0.9953
vn -0.0070 0.0776 0.9970
vn 0.3442 -0.0449 0.9378
vn 0.3438 0.0676 0.9366
vn 0.5914 0.1830 0.7854
vn -0.7682 0.3841 0.5121
vn -0.2046 0.2393 0.9491
vn -0.0826 0.2915 0.9530
vn 0.0135 0.1927 0.9812
vn 0.1666 0.2246 0.9601
vn 0.3125 0.4213 0.8514
vn 0.9237 0.3831 0.0000
vn -0.0310 0.1240 0.9918
vn 0.0719 -0.5526 0.8304
vn 0.2189 -0.8378 0.5003
vn 0.3260 0.0325 0.9448
vn -0.5212 0.4105 0.7482
vn 0.6205 0.4726 0.6258
vn -0.6557 0.1995 0.7282
vn 0.8000 0.0000 0.6000
vn -0.6205 -0.4726 0.6258
vn -1.0000 0.0000 0.0000
vn 1.0000 0.0000 0.0000
vn 0.0000 0.0000 -1.0000
vn 0.0000 -1.0000 0.0000
vn 0.0000 1.0000 0.0000
vn 0.0000 0.0226 0.9997
vn 0.0397 -0.1357 0.9899
vn -0.8682 -0.4961 0.0000
vn -0.7071 -0.7071 0.0000
vn -0.7346 -0.3965 0.5506
vn 0.7682 -0.3841 0.5121
vn 0.3841 0.2857 0.8780
vn 0.7346 0.3965 0.5506
vn -0.3841 -0.2857 0.8780
vn 0.8682 0.4961 0.0000
vn 0.4472 -0.8944 0.0000
vn 0.0720 -0.5526 0.8304
vn -0.1643 0.6396 0.7510
vn 0.0000 0.0906 0.9959
vn -0.2189 0.8378 0.5003
vn -0.4472 0.8944 0.0000
vn -0.0720 0.5526 0.8304
vn 0.7809 0.6247 0.0000
vn 0.1643 -0.6396 0.7510
vn -0.3254 0.0000 0.9456
vn -0.7963 0.1268 0.5915
vn -0.7809 -0.6247 0.0000
vn 0.0000 -0.0906 0.9959
usemtl Material.001
s off
f 14/1/1 25/2/1 26/3/1
f 14/1/2 26/3/2 24/4/2
f 16/5/3 27/6/3 32/7/3
f 17/8/4 28/9/4 34/10/4
f 15/11/5 31/12/5 33/13/5
f 16/5/6 32/7/6 35/14/6
f 17/8/7 34/10/7 30/15/7
f 18/16/8 36/17/8 41/18/8
f 19/19/9 37/20/9 42/21/9
f 20/22/10 38/23/10 39/24/10
f 39/24/11 42/21/11 21/25/11
f 39/24/12 38/23/12 42/21/12
f 38/23/13 19/19/13 42/21/13
f 42/21/14 41/18/14 21/25/14
f 42/21/15 37/20/15 41/18/15
f 37/20/16 18/16/16 41/18/16
f 41/26/17 40/27/17 21/28/17
f 41/26/18 36/29/18 40/27/18
f 30/15/19 38/23/19 20/22/19
f 30/15/20 34/10/20 38/23/20
f 34/10/21 19/19/21 38/23/21
f 35/14/22 37/20/22 19/19/22
f 35/14/23 32/7/23 37/20/23
f 32/7/24 18/16/24 37/20/24
f 33/30/25 36/17/25 18/16/25
f 33/13/26 31/12/26 36/29/26
f 34/10/27 35/14/27 19/19/27
f 34/10/28 28/9/28 35/14/28
f 28/9/29 16/5/29 35/14/29
f 32/7/30 33/30/30 18/16/30
f 32/7/31 27/6/31 33/30/31
f 27/6/32 15/31/32 33/30/32
f 29/32/33 30/33/33 20/34/33
f 29/32/34 23/35/34 30/33/34
f 23/36/35 17/8/35 30/15/35
f 24/4/36 28/9/36 17/8/36
f 24/4/37 26/3/37 28/9/37
f 26/3/38 16/5/38 28/9/38
f 26/3/39 27/6/39 16/5/39
f 26/3/40 25/2/40 27/6/40
f 25/2/41 15/31/41 27/6/41
f 23/36/42 24/4/42 17/8/42
f 23/35/43 22/37/43 24/38/43
f 22/37/44 14/39/44 24/38/44
f 5/40/45 51/41/45 44/42/45
f 45/43/46 5/40/46 44/42/46
f 8/44/47 6/45/47 1/46/47
f 9/47/48 7/48/48 2/49/48
f 8/44/49 1/46/49 10/50/49
f 9/47/50 61/51/50 54/52/50
f 3/53/51 65/54/51 69/55/51
f 13/56/52 11/57/52 4/58/52
f 56/59/53 59/60/53 83/61/53
f 13/56/54 82/62/54 72/63/54
f 12/64/55 82/62/55 13/56/55
f 4/58/56 12/64/56 13/56/56
f 76/65/57 73/66/57 70/67/57
f 76/65/58 11/57/58 13/56/58
f 67/68/59 11/57/59 75/69/59
f 12/64/60 52/70/60 56/59/60
f 9/47/61 53/71/61 12/64/61
f 4/58/62 9/47/62 12/64/62
f 11/57/63 10/50/63 4/58/63
f 11/57/64 8/44/64 10/50/64
f 3/53/65 8/44/65 11/57/65
f 3/53/66 50/72/66 49/73/66
f 4/58/67 10/50/67 9/47/67
f 10/50/68 7/48/68 9/47/68
f 10/50/69 1/46/69 7/48/69
f 8/44/70 62/74/70 63/75/70
f 64/76/71 8/44/71 63/75/71
f 6/45/72 60/77/72 57/78/72
f 55/79/73 61/51/73 2/49/73
f 81/80/74 7/48/74 77/81/74
f 78/82/75 7/48/75 5/40/75
f 1/46/76 5/40/76 7/48/76
f 1/46/77 6/45/77 5/40/77
f 74/83/78 6/45/78 71/84/78
f 57/78/79 58/85/79 68/86/79
f 48/87/80 2/49/80 81/80/80
f 14/1/81 45/43/81 44/42/81
f 23/88/82 46/89/82 47/90/82
f 14/1/54 51/41/54 25/91/54
f 23/88/66 55/79/66 46/89/66
f 60/77/60 31/92/60 15/93/60
f 29/32/83 61/94/83 55/95/83
f 40/96/74 67/68/74 66/97/74
f 36/98/84 69/55/84 65/54/84
f 73/66/46 21/25/46 70/67/46
f 76/65/75 40/96/75 66/97/75
f 80/99/45 21/25/45 72/63/45
f 39/100/78 82/62/78 84/101/78
f 20/102/85 83/61/85 59/60/85
f 49/73/86 36/98/86 31/92/86
f 53/103/87 29/32/87 52/104/87
f 20/102/72 56/59/72 52/70/72
f 62/105/50 31/12/50 63/106/50
f 31/12/61 64/107/61 63/106/61
f 15/93/88 68/86/88 58/85/88
f 25/91/55 51/41/55 71/84/55
f 78/108/58 22/109/58 79/110/58
f 22/109/59 81/111/59 79/110/59
f 86/112/89 87/113/89 85/114/89
f 92/115/90 89/116/90 91/117/90
f 90/118/57 85/119/57 89/116/57
f 94/120/90 95/121/90 96/122/90
f 99/123/89 98/124/89 97/125/89
f 100/126/91 93/127/91 94/128/91
f 88/129/91 95/130/91 87/131/91
f 92/132/91 97/133/91 98/134/91
f 89/116/92 85/135/92 99/136/92
f 86/137/93 90/118/93 94/138/93
f 5/40/57 74/83/57 51/41/57
f 51/41/94 43/139/94 44/42/94
f 45/43/57 78/82/57 5/40/57
f 9/47/50 2/49/50 61/51/50
f 3/53/95 67/68/95 65/54/95
f 84/101/96 12/64/96 83/61/96
f 12/64/88 56/59/88 83/61/88
f 72/63/97 73/66/97 13/56/97
f 82/62/57 80/99/57 72/63/57
f 12/64/55 84/101/55 82/62/55
f 76/65/81 13/56/81 73/66/81
f 76/65/58 75/69/58 11/57/58
f 75/69/57 66/97/57 67/68/57
f 67/68/59 3/53/59 11/57/59
f 12/64/98 53/71/98 52/70/98
f 9/47/61 54/52/61 53/71/61
f 49/73/99 62/74/99 3/53/99
f 3/53/100 69/55/100 50/72/100
f 8/44/70 3/53/70 62/74/70
f 64/76/71 6/45/71 8/44/71
f 6/45/101 64/76/101 60/77/101
f 2/49/102 47/90/102 46/89/102
f 46/89/86 55/79/86 2/49/86
f 81/80/74 2/49/74 7/48/74
f 77/81/57 79/140/57 81/80/57
f 78/82/75 77/81/75 7/48/75
f 74/83/78 5/40/78 6/45/78
f 68/86/103 71/84/103 6/45/103
f 6/45/85 57/78/85 68/86/85
f 48/87/84 47/90/84 2/49/84
f 44/42/104 43/139/104 14/1/104
f 14/1/105 22/141/105 45/43/105
f 47/90/51 48/87/51 23/88/51
f 48/87/51 22/141/51 23/88/51
f 14/1/54 43/139/54 51/41/54
f 23/88/66 29/142/66 55/79/66
f 15/93/106 58/85/106 57/78/106
f 57/78/60 60/77/60 15/93/60
f 29/32/70 54/143/70 61/94/70
f 40/96/107 65/54/107 67/68/107
f 65/54/84 40/96/84 36/98/84
f 36/98/108 50/72/108 69/55/108
f 73/66/109 72/63/109 21/25/109
f 21/25/110 40/96/110 70/67/110
f 76/65/57 70/67/57 40/96/57
f 66/97/57 75/69/57 76/65/57
f 80/99/45 39/100/45 21/25/45
f 39/100/57 80/99/57 82/62/57
f 84/101/111 83/61/111 39/100/111
f 20/102/85 39/100/85 83/61/85
f 49/73/86 50/72/86 36/98/86
f 53/103/71 54/143/71 29/32/71
f 52/70/72 29/142/72 20/102/72
f 20/102/112 59/60/112 56/59/112
f 62/105/113 49/144/113 31/12/113
f 31/12/114 60/145/114 64/107/114
f 15/93/88 25/91/88 68/86/88
f 71/84/115 68/86/115 25/91/115
f 51/41/57 74/83/57 71/84/57
f 78/108/57 45/146/57 22/109/57
f 79/110/57 77/147/57 78/108/57
f 22/109/116 48/148/116 81/111/116
f 86/112/89 88/149/89 87/113/89
f 92/115/90 90/118/90 89/116/90
f 90/118/57 86/150/57 85/119/57
f 94/120/90 93/151/90 95/121/90
f 99/123/89 100/152/89 98/124/89
f 100/126/91 99/153/91 93/127/91
f 88/129/91 96/154/91 95/130/91
f 92/132/91 91/155/91 97/133/91
f 99/136/92 97/156/92 91/117/92
f 85/135/92 87/157/92 93/158/92
f 87/157/92 95/159/92 93/158/92
f 99/136/92 91/117/92 89/116/92
f 85/135/92 93/158/92 99/136/92
f 96/160/93 88/161/93 94/138/93
f 88/161/93 86/137/93 94/138/93
f 90/118/93 92/115/93 100/162/93
f 92/115/93 98/163/93 100/162/93
f 90/118/93 100/162/93 94/138/93
